<svg width="32" height="32" viewBox="0 0 32 32" fill="none" xmlns="http://www.w3.org/2000/svg">
<path d="M12.6513 12L18.3487 12L20.6506 14.2018L15.7203 20.4269L10.3748 14.1775L12.6513 12Z" stroke="black" stroke-width="2"/>
<mask id="path-2-inside-1_372_23060" fill="white">
<path d="M3.13169 14.0183C2.59676 13.9359 2.09271 14.3028 2.04794 14.8422C1.80193 17.806 2.50599 20.7809 4.07179 23.3292C5.80912 26.1567 8.49435 28.2751 11.6486 29.3066C14.8028 30.338 18.2208 30.2155 21.2931 28.9608C24.3653 27.7062 26.892 25.4009 28.4224 22.4563C29.9528 19.5117 30.3874 16.1192 29.6488 12.8839C28.9102 9.64856 27.0462 6.78082 24.3895 4.79216C21.7328 2.80349 18.4561 1.82323 15.1437 2.02621C12.1584 2.20915 9.3191 3.34249 7.03492 5.24696C6.61922 5.59356 6.60861 6.21691 6.98342 6.60736C7.35824 6.99781 7.9763 7.00695 8.39593 6.66511C10.3418 5.07993 12.7421 4.13706 15.2636 3.98254C18.1122 3.80798 20.9302 4.651 23.215 6.36125C25.4998 8.0715 27.1027 10.5378 27.738 13.3201C28.3732 16.1025 27.9994 19.0201 26.6833 21.5524C25.3671 24.0848 23.1942 26.0673 20.552 27.1463C17.9099 28.2253 14.9704 28.3307 12.2578 27.4437C9.54514 26.5566 7.23584 24.7348 5.74174 22.3031C4.41924 20.1508 3.81156 17.6446 3.99066 15.1411C4.02928 14.6013 3.66662 14.1007 3.13169 14.0183Z"/>
</mask>
<path d="M3.13169 14.0183C2.59676 13.9359 2.09271 14.3028 2.04794 14.8422C1.80193 17.806 2.50599 20.7809 4.07179 23.3292C5.80912 26.1567 8.49435 28.2751 11.6486 29.3066C14.8028 30.338 18.2208 30.2155 21.2931 28.9608C24.3653 27.7062 26.892 25.4009 28.4224 22.4563C29.9528 19.5117 30.3874 16.1192 29.6488 12.8839C28.9102 9.64856 27.0462 6.78082 24.3895 4.79216C21.7328 2.80349 18.4561 1.82323 15.1437 2.02621C12.1584 2.20915 9.3191 3.34249 7.03492 5.24696C6.61922 5.59356 6.60861 6.21691 6.98342 6.60736C7.35824 6.99781 7.9763 7.00695 8.39593 6.66511C10.3418 5.07993 12.7421 4.13706 15.2636 3.98254C18.1122 3.80798 20.9302 4.651 23.215 6.36125C25.4998 8.0715 27.1027 10.5378 27.738 13.3201C28.3732 16.1025 27.9994 19.0201 26.6833 21.5524C25.3671 24.0848 23.1942 26.0673 20.552 27.1463C17.9099 28.2253 14.9704 28.3307 12.2578 27.4437C9.54514 26.5566 7.23584 24.7348 5.74174 22.3031C4.41924 20.1508 3.81156 17.6446 3.99066 15.1411C4.02928 14.6013 3.66662 14.1007 3.13169 14.0183Z" stroke="black" stroke-width="4" mask="url(#path-2-inside-1_372_23060)"/>
<path d="M6.76611 2.96582L6.37765 5.09154C6.13796 6.40315 7.22453 7.57761 8.55079 7.44046L10.7002 7.21819" stroke="black" stroke-width="2"/>
</svg>
