<svg width="30" height="12" viewBox="0 0 30 12" fill="none" xmlns="http://www.w3.org/2000/svg">
<path d="M0.585 5.6C0.585 4.95 0.695 4.315 0.915 3.695C1.145 3.065 1.475 2.495 1.905 1.985C2.345 1.465 2.88 1.055 3.51 0.755C4.14 0.444999 4.855 0.289999 5.655 0.289999C6.605 0.289999 7.42 0.509999 8.1 0.95C8.78 1.38 9.285 1.935 9.615 2.615L8.55 3.305C8.34 2.855 8.07 2.5 7.74 2.24C7.42 1.97 7.07 1.78 6.69 1.67C6.32 1.56 5.955 1.505 5.595 1.505C5.005 1.505 4.48 1.625 4.02 1.865C3.57 2.105 3.19 2.425 2.88 2.825C2.57 3.225 2.335 3.675 2.175 4.175C2.025 4.665 1.95 5.16 1.95 5.66C1.95 6.21 2.04 6.74 2.22 7.25C2.41 7.76 2.67 8.21 3 8.6C3.33 8.99 3.72 9.3 4.17 9.53C4.62 9.76 5.11 9.875 5.64 9.875C6.01 9.875 6.39 9.81 6.78 9.68C7.17 9.55 7.535 9.35 7.875 9.08C8.215 8.8 8.485 8.44 8.685 8L9.81 8.615C9.59 9.145 9.25 9.595 8.79 9.965C8.33 10.335 7.815 10.615 7.245 10.805C6.685 10.995 6.13 11.09 5.58 11.09C4.85 11.09 4.18 10.935 3.57 10.625C2.96 10.305 2.43 9.885 1.98 9.365C1.54 8.835 1.195 8.245 0.945 7.595C0.705 6.935 0.585 6.27 0.585 5.6ZM10.6746 8.735C10.6746 8.235 10.8146 7.805 11.0946 7.445C11.3846 7.075 11.7796 6.79 12.2796 6.59C12.7796 6.39 13.3596 6.29 14.0196 6.29C14.3696 6.29 14.7396 6.32 15.1296 6.38C15.5196 6.43 15.8646 6.51 16.1646 6.62V6.05C16.1646 5.45 15.9846 4.98 15.6246 4.64C15.2646 4.29 14.7546 4.115 14.0946 4.115C13.6646 4.115 13.2496 4.195 12.8496 4.355C12.4596 4.505 12.0446 4.725 11.6046 5.015L11.1246 4.085C11.6346 3.735 12.1446 3.475 12.6546 3.305C13.1646 3.125 13.6946 3.035 14.2446 3.035C15.2446 3.035 16.0346 3.315 16.6146 3.875C17.1946 4.425 17.4846 5.195 17.4846 6.185V9.5C17.4846 9.66 17.5146 9.78 17.5746 9.86C17.6446 9.93 17.7546 9.97 17.9046 9.98V11C17.7746 11.02 17.6596 11.035 17.5596 11.045C17.4696 11.055 17.3946 11.06 17.3346 11.06C17.0246 11.06 16.7896 10.975 16.6296 10.805C16.4796 10.635 16.3946 10.455 16.3746 10.265L16.3446 9.77C16.0046 10.21 15.5596 10.55 15.0096 10.79C14.4596 11.03 13.9146 11.15 13.3746 11.15C12.8546 11.15 12.3896 11.045 11.9796 10.835C11.5696 10.615 11.2496 10.325 11.0196 9.965C10.7896 9.595 10.6746 9.185 10.6746 8.735ZM15.7746 9.29C15.8946 9.15 15.9896 9.01 16.0596 8.87C16.1296 8.72 16.1646 8.595 16.1646 8.495V7.52C15.8546 7.4 15.5296 7.31 15.1896 7.25C14.8496 7.18 14.5146 7.145 14.1846 7.145C13.5146 7.145 12.9696 7.28 12.5496 7.55C12.1396 7.81 11.9346 8.17 11.9346 8.63C11.9346 8.88 11.9996 9.125 12.1296 9.365C12.2696 9.595 12.4696 9.785 12.7296 9.935C12.9996 10.085 13.3296 10.16 13.7196 10.16C14.1296 10.16 14.5196 10.08 14.8896 9.92C15.2596 9.75 15.5546 9.54 15.7746 9.29ZM23.7353 4.325C23.0753 4.335 22.4903 4.505 21.9803 4.835C21.4803 5.155 21.1253 5.6 20.9153 6.17V11H19.5953V3.17H20.8253V4.985C21.0953 4.445 21.4503 4.01 21.8903 3.68C22.3403 3.34 22.8103 3.15 23.3003 3.11C23.4003 3.11 23.4853 3.11 23.5553 3.11C23.6253 3.11 23.6853 3.115 23.7353 3.125V4.325ZM29.0945 10.61C28.9845 10.66 28.8345 10.725 28.6445 10.805C28.4545 10.885 28.2345 10.955 27.9845 11.015C27.7345 11.075 27.4695 11.105 27.1895 11.105C26.8695 11.105 26.5745 11.05 26.3045 10.94C26.0345 10.82 25.8195 10.64 25.6595 10.4C25.4995 10.15 25.4195 9.84 25.4195 9.47V4.205H24.3545V3.17H25.4195V0.559999H26.7395V3.17H28.4945V4.205H26.7395V9.065C26.7595 9.345 26.8545 9.555 27.0245 9.695C27.1945 9.825 27.3945 9.89 27.6245 9.89C27.8845 9.89 28.1245 9.845 28.3445 9.755C28.5645 9.665 28.7095 9.6 28.7795 9.56L29.0945 10.61Z" fill="black"/>
</svg>
