<svg width="62" height="12" viewBox="0 0 62 12" fill="none" xmlns="http://www.w3.org/2000/svg">
<path d="M0.275 11V0.349999H3.965C5.105 0.349999 6.055 0.589999 6.815 1.07C7.585 1.54 8.16 2.18 8.54 2.99C8.92 3.79 9.11 4.68 9.11 5.66C9.11 6.74 8.9 7.68 8.48 8.48C8.06 9.28 7.465 9.9 6.695 10.34C5.925 10.78 5.015 11 3.965 11H0.275ZM7.745 5.66C7.745 4.86 7.595 4.15 7.295 3.53C7.005 2.91 6.58 2.425 6.02 2.075C5.46 1.725 4.775 1.55 3.965 1.55H1.625V9.8H3.965C4.785 9.8 5.475 9.62 6.035 9.26C6.595 8.89 7.02 8.395 7.31 7.775C7.6 7.145 7.745 6.44 7.745 5.66ZM10.8023 11V3.17H12.1223V11H10.8023ZM10.8023 1.7V0.0499997H12.1223V1.7H10.8023ZM13.6443 8.735C13.6443 8.235 13.7843 7.805 14.0643 7.445C14.3543 7.075 14.7493 6.79 15.2493 6.59C15.7493 6.39 16.3293 6.29 16.9893 6.29C17.3393 6.29 17.7093 6.32 18.0993 6.38C18.4893 6.43 18.8343 6.51 19.1343 6.62V6.05C19.1343 5.45 18.9543 4.98 18.5943 4.64C18.2343 4.29 17.7243 4.115 17.0643 4.115C16.6343 4.115 16.2193 4.195 15.8193 4.355C15.4293 4.505 15.0143 4.725 14.5743 5.015L14.0943 4.085C14.6043 3.735 15.1143 3.475 15.6243 3.305C16.1343 3.125 16.6643 3.035 17.2143 3.035C18.2143 3.035 19.0043 3.315 19.5843 3.875C20.1643 4.425 20.4543 5.195 20.4543 6.185V9.5C20.4543 9.66 20.4843 9.78 20.5443 9.86C20.6143 9.93 20.7243 9.97 20.8743 9.98V11C20.7443 11.02 20.6293 11.035 20.5293 11.045C20.4393 11.055 20.3643 11.06 20.3043 11.06C19.9943 11.06 19.7593 10.975 19.5993 10.805C19.4493 10.635 19.3643 10.455 19.3443 10.265L19.3143 9.77C18.9743 10.21 18.5293 10.55 17.9793 10.79C17.4293 11.03 16.8843 11.15 16.3443 11.15C15.8243 11.15 15.3593 11.045 14.9493 10.835C14.5393 10.615 14.2193 10.325 13.9893 9.965C13.7593 9.595 13.6443 9.185 13.6443 8.735ZM18.7443 9.29C18.8643 9.15 18.9593 9.01 19.0293 8.87C19.0993 8.72 19.1343 8.595 19.1343 8.495V7.52C18.8243 7.4 18.4993 7.31 18.1593 7.25C17.8193 7.18 17.4843 7.145 17.1543 7.145C16.4843 7.145 15.9393 7.28 15.5193 7.55C15.1093 7.81 14.9043 8.17 14.9043 8.63C14.9043 8.88 14.9693 9.125 15.0993 9.365C15.2393 9.595 15.4393 9.785 15.6993 9.935C15.9693 10.085 16.2993 10.16 16.6893 10.16C17.0993 10.16 17.4893 10.08 17.8593 9.92C18.2293 9.75 18.5243 9.54 18.7443 9.29ZM34.37 11H33.05V6.62C33.05 5.8 32.915 5.195 32.645 4.805C32.385 4.415 31.995 4.22 31.475 4.22C30.945 4.22 30.465 4.415 30.035 4.805C29.605 5.185 29.3 5.68 29.12 6.29V11H27.8V6.62C27.8 5.79 27.67 5.185 27.41 4.805C27.15 4.415 26.76 4.22 26.24 4.22C25.72 4.22 25.24 4.41 24.8 4.79C24.37 5.16 24.065 5.655 23.885 6.275V11H22.565V3.17H23.765V4.85C24.085 4.27 24.5 3.825 25.01 3.515C25.52 3.195 26.095 3.035 26.735 3.035C27.385 3.035 27.905 3.215 28.295 3.575C28.685 3.925 28.925 4.38 29.015 4.94C29.365 4.32 29.79 3.85 30.29 3.53C30.79 3.2 31.36 3.035 32 3.035C32.45 3.035 32.825 3.12 33.125 3.29C33.435 3.45 33.68 3.68 33.86 3.98C34.04 4.27 34.17 4.615 34.25 5.015C34.33 5.415 34.37 5.85 34.37 6.32V11ZM39.8424 11.15C39.2524 11.15 38.7174 11.045 38.2374 10.835C37.7574 10.615 37.3424 10.32 36.9924 9.95C36.6424 9.57 36.3724 9.135 36.1824 8.645C35.9924 8.155 35.8974 7.64 35.8974 7.1C35.8974 6.55 35.9924 6.03 36.1824 5.54C36.3724 5.05 36.6424 4.62 36.9924 4.25C37.3424 3.87 37.7574 3.575 38.2374 3.365C38.7274 3.145 39.2624 3.035 39.8424 3.035C40.4324 3.035 40.9674 3.145 41.4474 3.365C41.9274 3.575 42.3424 3.87 42.6924 4.25C43.0524 4.62 43.3274 5.05 43.5174 5.54C43.7074 6.03 43.8024 6.55 43.8024 7.1C43.8024 7.64 43.7074 8.155 43.5174 8.645C43.3274 9.135 43.0574 9.57 42.7074 9.95C42.3574 10.32 41.9374 10.615 41.4474 10.835C40.9674 11.045 40.4324 11.15 39.8424 11.15ZM37.2474 7.115C37.2474 7.655 37.3624 8.145 37.5924 8.585C37.8324 9.025 38.1474 9.375 38.5374 9.635C38.9274 9.885 39.3624 10.01 39.8424 10.01C40.3224 10.01 40.7574 9.88 41.1474 9.62C41.5474 9.36 41.8624 9.01 42.0924 8.57C42.3324 8.12 42.4524 7.625 42.4524 7.085C42.4524 6.545 42.3324 6.055 42.0924 5.615C41.8624 5.175 41.5474 4.825 41.1474 4.565C40.7574 4.305 40.3224 4.175 39.8424 4.175C39.3624 4.175 38.9274 4.31 38.5374 4.58C38.1474 4.84 37.8324 5.19 37.5924 5.63C37.3624 6.07 37.2474 6.565 37.2474 7.115ZM52.1969 11H50.8769V6.62C50.8769 5.79 50.7469 5.185 50.4869 4.805C50.2369 4.415 49.8519 4.22 49.3319 4.22C48.9719 4.22 48.6119 4.31 48.2519 4.49C47.9019 4.67 47.5869 4.915 47.3069 5.225C47.0369 5.525 46.8419 5.875 46.7219 6.275V11H45.4019V3.17H46.6019V4.85C46.8119 4.48 47.0819 4.16 47.4119 3.89C47.7419 3.62 48.1169 3.41 48.5369 3.26C48.9569 3.11 49.3969 3.035 49.8569 3.035C50.3069 3.035 50.6819 3.12 50.9819 3.29C51.2919 3.45 51.5319 3.68 51.7019 3.98C51.8819 4.27 52.0069 4.615 52.0769 5.015C52.1569 5.415 52.1969 5.85 52.1969 6.32V11ZM53.7396 7.1C53.7396 6.36 53.8896 5.685 54.1896 5.075C54.4996 4.455 54.9196 3.96 55.4496 3.59C55.9896 3.22 56.6046 3.035 57.2946 3.035C57.9246 3.035 58.4896 3.2 58.9896 3.53C59.4896 3.86 59.8796 4.26 60.1596 4.73V0.0499997H61.4796V9.5C61.4796 9.66 61.5096 9.78 61.5696 9.86C61.6396 9.93 61.7496 9.97 61.8996 9.98V11C61.6496 11.04 61.4546 11.06 61.3146 11.06C61.0546 11.06 60.8246 10.97 60.6246 10.79C60.4346 10.61 60.3396 10.41 60.3396 10.19V9.53C60.0296 10.03 59.6146 10.425 59.0946 10.715C58.5746 11.005 58.0346 11.15 57.4746 11.15C56.9346 11.15 56.4346 11.045 55.9746 10.835C55.5246 10.615 55.1296 10.315 54.7896 9.935C54.4596 9.555 54.1996 9.125 54.0096 8.645C53.8296 8.155 53.7396 7.64 53.7396 7.1ZM60.1596 8.255V6.005C60.0396 5.665 59.8446 5.36 59.5746 5.09C59.3046 4.81 58.9996 4.59 58.6596 4.43C58.3296 4.26 57.9996 4.175 57.6696 4.175C57.2796 4.175 56.9246 4.26 56.6046 4.43C56.2946 4.59 56.0246 4.81 55.7946 5.09C55.5746 5.36 55.4046 5.67 55.2846 6.02C55.1646 6.37 55.1046 6.735 55.1046 7.115C55.1046 7.505 55.1696 7.875 55.2996 8.225C55.4396 8.575 55.6296 8.885 55.8696 9.155C56.1196 9.425 56.4046 9.635 56.7246 9.785C57.0546 9.935 57.4096 10.01 57.7896 10.01C58.0296 10.01 58.2746 9.965 58.5246 9.875C58.7846 9.785 59.0296 9.66 59.2596 9.5C59.4896 9.34 59.6846 9.155 59.8446 8.945C60.0046 8.725 60.1096 8.495 60.1596 8.255Z" fill="black"/>
</svg>
