<svg width="32" height="32" viewBox="0 0 32 32" fill="none" xmlns="http://www.w3.org/2000/svg">
<g clip-path="url(#clip0_324_17109)">
<path d="M8.18038 3.3753C8.37015 3.13809 8.65747 3 8.96125 3H22.0388C22.3425 3 22.6298 3.13809 22.8196 3.37531L27.6196 9.3753C28.1434 10.0301 27.6773 11 26.8388 11H4.16125C3.32274 11 2.85657 10.0301 3.38038 9.37531L8.18038 3.3753Z" stroke="#A16126" stroke-width="2"/>
<path d="M9 3L11.092 11.3793M22 3L20.0575 11.3793M11.6135 13.4686L14.7345 25.9695C14.989 26.9887 16.4417 26.9765 16.6789 25.9532L19.5731 13.4686" stroke="#A16126" stroke-width="2"/>
<path d="M16.2146 27.8406C15.8224 28.2412 15.1776 28.2412 14.7854 27.8406L2.65477 15.4496C2.0351 14.8166 2.48355 13.75 3.36934 13.75L27.6307 13.75C28.5165 13.75 28.9649 14.8166 28.3452 15.4496L16.2146 27.8406Z" stroke="#A16126" stroke-width="2"/>
</g>
<defs>
<clipPath id="clip0_324_17109">
<rect width="32" height="32" fill="white"/>
</clipPath>
</defs>
</svg>
