<svg width="44" height="13" viewBox="0 0 44 13" fill="none" xmlns="http://www.w3.org/2000/svg">
<path d="M0.275 12V1.35H4.715C5.185 1.35 5.615 1.45 6.005 1.65C6.395 1.84 6.735 2.1 7.025 2.43C7.315 2.75 7.54 3.115 7.7 3.525C7.86 3.925 7.94 4.335 7.94 4.755C7.94 5.335 7.81 5.89 7.55 6.42C7.29 6.94 6.925 7.365 6.455 7.695C5.985 8.015 5.435 8.175 4.805 8.175H1.625V12H0.275ZM1.625 6.975H4.73C5.1 6.975 5.42 6.875 5.69 6.675C5.97 6.475 6.185 6.205 6.335 5.865C6.495 5.525 6.575 5.155 6.575 4.755C6.575 4.335 6.485 3.96 6.305 3.63C6.125 3.29 5.89 3.025 5.6 2.835C5.31 2.645 4.99 2.55 4.64 2.55H1.625V6.975ZM13.5507 5.325C12.8907 5.335 12.3057 5.505 11.7957 5.835C11.2957 6.155 10.9407 6.6 10.7307 7.17V12H9.4107V4.17H10.6407V5.985C10.9107 5.445 11.2657 5.01 11.7057 4.68C12.1557 4.34 12.6257 4.15 13.1157 4.11C13.2157 4.11 13.3007 4.11 13.3707 4.11C13.4407 4.11 13.5007 4.115 13.5507 4.125V5.325ZM18.0895 12.15C17.4995 12.15 16.9645 12.045 16.4845 11.835C16.0045 11.615 15.5895 11.32 15.2395 10.95C14.8895 10.57 14.6195 10.135 14.4295 9.645C14.2395 9.155 14.1445 8.64 14.1445 8.1C14.1445 7.55 14.2395 7.03 14.4295 6.54C14.6195 6.05 14.8895 5.62 15.2395 5.25C15.5895 4.87 16.0045 4.575 16.4845 4.365C16.9745 4.145 17.5095 4.035 18.0895 4.035C18.6795 4.035 19.2145 4.145 19.6945 4.365C20.1745 4.575 20.5895 4.87 20.9395 5.25C21.2995 5.62 21.5745 6.05 21.7645 6.54C21.9545 7.03 22.0495 7.55 22.0495 8.1C22.0495 8.64 21.9545 9.155 21.7645 9.645C21.5745 10.135 21.3045 10.57 20.9545 10.95C20.6045 11.32 20.1845 11.615 19.6945 11.835C19.2145 12.045 18.6795 12.15 18.0895 12.15ZM15.4945 8.115C15.4945 8.655 15.6095 9.145 15.8395 9.585C16.0795 10.025 16.3945 10.375 16.7845 10.635C17.1745 10.885 17.6095 11.01 18.0895 11.01C18.5695 11.01 19.0045 10.88 19.3945 10.62C19.7945 10.36 20.1095 10.01 20.3395 9.57C20.5795 9.12 20.6995 8.625 20.6995 8.085C20.6995 7.545 20.5795 7.055 20.3395 6.615C20.1095 6.175 19.7945 5.825 19.3945 5.565C19.0045 5.305 18.5695 5.175 18.0895 5.175C17.6095 5.175 17.1745 5.31 16.7845 5.58C16.3945 5.84 16.0795 6.19 15.8395 6.63C15.6095 7.07 15.4945 7.565 15.4945 8.115ZM23.9371 5.205H22.8721V4.17H23.9371V4.005C23.9371 3.615 23.9971 3.24 24.1171 2.88C24.2371 2.51 24.4171 2.175 24.6571 1.875C24.8971 1.575 25.1971 1.34 25.5571 1.17C25.9171 0.99 26.3421 0.9 26.8321 0.9C27.2021 0.9 27.5421 0.94 27.8521 1.02C28.1621 1.1 28.4371 1.2 28.6771 1.32C28.9271 1.44 29.1321 1.56 29.2921 1.68L28.7221 2.655C28.5321 2.485 28.2721 2.34 27.9421 2.22C27.6221 2.1 27.2771 2.04 26.9071 2.04C26.5271 2.04 26.2121 2.135 25.9621 2.325C25.7221 2.515 25.5421 2.76 25.4221 3.06C25.3121 3.35 25.2571 3.65 25.2571 3.96V4.17H29.2621V12H27.9421V5.205H25.2571V12H23.9371V5.205ZM31.428 1.05H32.748V9.975C32.748 10.405 32.808 10.67 32.928 10.77C33.048 10.87 33.193 10.92 33.363 10.92C33.573 10.92 33.773 10.9 33.963 10.86C34.153 10.81 34.313 10.76 34.443 10.71L34.653 11.79C34.433 11.88 34.173 11.955 33.873 12.015C33.573 12.075 33.308 12.105 33.078 12.105C32.568 12.105 32.163 11.96 31.863 11.67C31.573 11.38 31.428 10.975 31.428 10.455V1.05ZM39.155 12.15C38.565 12.15 38.025 12.045 37.535 11.835C37.055 11.615 36.635 11.32 36.275 10.95C35.925 10.57 35.65 10.135 35.45 9.645C35.26 9.155 35.165 8.635 35.165 8.085C35.165 7.345 35.335 6.67 35.675 6.06C36.015 5.45 36.485 4.96 37.085 4.59C37.695 4.22 38.39 4.035 39.17 4.035C39.96 4.035 40.645 4.225 41.225 4.605C41.815 4.975 42.27 5.465 42.59 6.075C42.92 6.675 43.085 7.325 43.085 8.025C43.085 8.125 43.08 8.225 43.07 8.325C43.07 8.415 43.065 8.485 43.055 8.535H36.56C36.6 9.045 36.74 9.5 36.98 9.9C37.23 10.29 37.55 10.6 37.94 10.83C38.33 11.05 38.75 11.16 39.2 11.16C39.68 11.16 40.13 11.04 40.55 10.8C40.98 10.56 41.275 10.245 41.435 9.855L42.575 10.17C42.405 10.55 42.15 10.89 41.81 11.19C41.48 11.49 41.085 11.725 40.625 11.895C40.175 12.065 39.685 12.15 39.155 12.15ZM36.515 7.62H41.855C41.815 7.11 41.67 6.66 41.42 6.27C41.17 5.88 40.85 5.575 40.46 5.355C40.07 5.135 39.64 5.025 39.17 5.025C38.71 5.025 38.285 5.135 37.895 5.355C37.505 5.575 37.185 5.88 36.935 6.27C36.695 6.66 36.555 7.11 36.515 7.62Z" fill="black"/>
</svg>
