<svg width="32" height="32" viewBox="0 0 32 32" fill="none" xmlns="http://www.w3.org/2000/svg">
<mask id="path-1-inside-1_324_17158" fill="white">
<path d="M24.0302 6.53193C26.452 8.22773 28.2748 10.6467 29.2373 13.4421C30.1998 16.2376 30.2527 19.266 29.3882 22.0933C28.5238 24.9206 26.7865 27.4017 24.4253 29.181C22.0641 30.9602 19.2003 31.9463 16.2442 31.9979C13.2882 32.0494 10.3917 31.1639 7.96984 29.4681C5.54802 27.7723 3.72523 25.3533 2.7627 22.5578C1.80018 19.7624 1.74734 16.734 2.61177 13.9067C3.47619 11.0794 5.21349 8.59829 7.57468 6.81903L8.75423 8.38437C6.7236 9.91453 5.22952 12.0483 4.48612 14.4798C3.74272 16.9112 3.78816 19.5157 4.61593 21.9198C5.4437 24.3238 7.0113 26.4041 9.09406 27.8625C11.1768 29.3209 13.6678 30.0825 16.21 30.0382C18.7522 29.9938 21.2152 29.1458 23.2458 27.6156C25.2764 26.0855 26.7705 23.9517 27.5139 21.5202C28.2573 19.0887 28.2118 16.4843 27.3841 14.0802C26.5563 11.6762 24.9887 9.59585 22.9059 8.13746L24.0302 6.53193Z"/>
</mask>
<path d="M24.0302 6.53193C26.452 8.22773 28.2748 10.6467 29.2373 13.4421C30.1998 16.2376 30.2527 19.266 29.3882 22.0933C28.5238 24.9206 26.7865 27.4017 24.4253 29.181C22.0641 30.9602 19.2003 31.9463 16.2442 31.9979C13.2882 32.0494 10.3917 31.1639 7.96984 29.4681C5.54802 27.7723 3.72523 25.3533 2.7627 22.5578C1.80018 19.7624 1.74734 16.734 2.61177 13.9067C3.47619 11.0794 5.21349 8.59829 7.57468 6.81903L8.75423 8.38437C6.7236 9.91453 5.22952 12.0483 4.48612 14.4798C3.74272 16.9112 3.78816 19.5157 4.61593 21.9198C5.4437 24.3238 7.0113 26.4041 9.09406 27.8625C11.1768 29.3209 13.6678 30.0825 16.21 30.0382C18.7522 29.9938 21.2152 29.1458 23.2458 27.6156C25.2764 26.0855 26.7705 23.9517 27.5139 21.5202C28.2573 19.0887 28.2118 16.4843 27.3841 14.0802C26.5563 11.6762 24.9887 9.59585 22.9059 8.13746L24.0302 6.53193Z" stroke="#8B8B8B" stroke-width="4" mask="url(#path-1-inside-1_324_17158)"/>
<path d="M13.1722 1L17.8278 0.999999L19.6917 2.91552L15.681 8.35615L11.3309 2.89226L13.1722 1Z" stroke="#8B8B8B" stroke-width="2"/>
</svg>
