<svg width="77" height="15" viewBox="0 0 77 15" fill="none" xmlns="http://www.w3.org/2000/svg">
<path d="M0.275 11V0.349999H4.835C5.305 0.349999 5.735 0.449999 6.125 0.649999C6.515 0.84 6.855 1.1 7.145 1.43C7.435 1.75 7.66 2.115 7.82 2.525C7.98 2.925 8.06 3.335 8.06 3.755C8.06 4.245 7.965 4.71 7.775 5.15C7.595 5.59 7.335 5.965 6.995 6.275C6.665 6.585 6.275 6.8 5.825 6.92L8.405 11H6.875L4.445 7.175H1.625V11H0.275ZM1.625 5.975H4.85C5.22 5.975 5.54 5.875 5.81 5.675C6.09 5.465 6.305 5.19 6.455 4.85C6.615 4.51 6.695 4.145 6.695 3.755C6.695 3.355 6.605 2.99 6.425 2.66C6.245 2.32 6.01 2.05 5.72 1.85C5.43 1.65 5.11 1.55 4.76 1.55H1.625V5.975ZM9.85016 11V3.17H11.1702V11H9.85016ZM9.85016 1.7V0.0499997H11.1702V1.7H9.85016ZM20.1022 11H18.7822V6.62C18.7822 5.79 18.6522 5.185 18.3922 4.805C18.1422 4.415 17.7572 4.22 17.2372 4.22C16.8772 4.22 16.5172 4.31 16.1572 4.49C15.8072 4.67 15.4922 4.915 15.2122 5.225C14.9422 5.525 14.7472 5.875 14.6272 6.275V11H13.3072V3.17H14.5072V4.85C14.7172 4.48 14.9872 4.16 15.3172 3.89C15.6472 3.62 16.0222 3.41 16.4422 3.26C16.8622 3.11 17.3022 3.035 17.7622 3.035C18.2122 3.035 18.5872 3.12 18.8872 3.29C19.1972 3.45 19.4372 3.68 19.6072 3.98C19.7872 4.27 19.9122 4.615 19.9822 5.015C20.0622 5.415 20.1022 5.85 20.1022 6.32V11ZM25.2748 11.09C24.7448 11.09 24.2548 10.985 23.8048 10.775C23.3648 10.555 22.9848 10.26 22.6648 9.89C22.3448 9.51 22.0948 9.08 21.9148 8.6C21.7448 8.12 21.6598 7.62 21.6598 7.1C21.6598 6.55 21.7448 6.03 21.9148 5.54C22.0948 5.05 22.3448 4.62 22.6648 4.25C22.9948 3.87 23.3798 3.575 23.8198 3.365C24.2598 3.145 24.7498 3.035 25.2898 3.035C25.9398 3.035 26.5048 3.195 26.9848 3.515C27.4748 3.835 27.8848 4.24 28.2148 4.73V3.17H29.3848V10.91C29.3848 11.65 29.2048 12.275 28.8448 12.785C28.4948 13.295 28.0148 13.68 27.4048 13.94C26.8048 14.21 26.1348 14.345 25.3948 14.345C24.5148 14.345 23.7948 14.19 23.2348 13.88C22.6748 13.57 22.2098 13.15 21.8398 12.62L22.6048 11.945C22.9148 12.405 23.3148 12.75 23.8048 12.98C24.3048 13.21 24.8348 13.325 25.3948 13.325C25.8748 13.325 26.3148 13.235 26.7148 13.055C27.1248 12.885 27.4498 12.62 27.6898 12.26C27.9398 11.9 28.0648 11.45 28.0648 10.91V9.53C27.7748 10.01 27.3748 10.39 26.8648 10.67C26.3648 10.95 25.8348 11.09 25.2748 11.09ZM25.6798 10.01C25.9598 10.01 26.2298 9.96 26.4898 9.86C26.7498 9.76 26.9898 9.63 27.2098 9.47C27.4298 9.3 27.6148 9.11 27.7648 8.9C27.9148 8.69 28.0148 8.475 28.0648 8.255V6.005C27.9248 5.645 27.7248 5.33 27.4648 5.06C27.2048 4.78 26.9098 4.565 26.5798 4.415C26.2498 4.255 25.9098 4.175 25.5598 4.175C25.1598 4.175 24.7998 4.26 24.4798 4.43C24.1698 4.6 23.9048 4.83 23.6848 5.12C23.4648 5.4 23.2948 5.715 23.1748 6.065C23.0548 6.415 22.9948 6.77 22.9948 7.13C22.9948 7.52 23.0648 7.89 23.2048 8.24C23.3448 8.58 23.5348 8.885 23.7748 9.155C24.0148 9.425 24.2998 9.635 24.6298 9.785C24.9598 9.935 25.3098 10.01 25.6798 10.01ZM41.7741 2.585C41.6541 2.445 41.4941 2.31 41.2941 2.18C41.0941 2.05 40.8691 1.935 40.6191 1.835C40.3691 1.725 40.0941 1.64 39.7941 1.58C39.5041 1.51 39.1991 1.475 38.8791 1.475C38.0591 1.475 37.4541 1.63 37.0641 1.94C36.6741 2.25 36.4791 2.675 36.4791 3.215C36.4791 3.595 36.5791 3.895 36.7791 4.115C36.9791 4.335 37.2841 4.515 37.6941 4.655C38.1141 4.795 38.6441 4.94 39.2841 5.09C40.0241 5.25 40.6641 5.445 41.2041 5.675C41.7441 5.905 42.1591 6.215 42.4491 6.605C42.7391 6.985 42.8841 7.495 42.8841 8.135C42.8841 8.645 42.7841 9.09 42.5841 9.47C42.3941 9.84 42.1241 10.15 41.7741 10.4C41.4241 10.64 41.0141 10.82 40.5441 10.94C40.0741 11.05 39.5641 11.105 39.0141 11.105C38.4741 11.105 37.9441 11.05 37.4241 10.94C36.9141 10.82 36.4291 10.65 35.9691 10.43C35.5091 10.21 35.0791 9.935 34.6791 9.605L35.3241 8.465C35.4841 8.635 35.6891 8.805 35.9391 8.975C36.1991 9.135 36.4891 9.285 36.8091 9.425C37.1391 9.565 37.4941 9.68 37.8741 9.77C38.2541 9.85 38.6441 9.89 39.0441 9.89C39.8041 9.89 40.3941 9.755 40.8141 9.485C41.2341 9.205 41.4441 8.8 41.4441 8.27C41.4441 7.87 41.3241 7.55 41.0841 7.31C40.8541 7.07 40.5091 6.87 40.0491 6.71C39.5891 6.55 39.0291 6.39 38.3691 6.23C37.6491 6.05 37.0441 5.855 36.5541 5.645C36.0641 5.425 35.6941 5.14 35.4441 4.79C35.2041 4.44 35.0841 3.985 35.0841 3.425C35.0841 2.745 35.2491 2.17 35.5791 1.7C35.9091 1.23 36.3641 0.874999 36.9441 0.634999C37.5241 0.394999 38.1791 0.274999 38.9091 0.274999C39.3891 0.274999 39.8341 0.324999 40.2441 0.424999C40.6641 0.524999 41.0541 0.664999 41.4141 0.844999C41.7741 1.025 42.1041 1.24 42.4041 1.49L41.7741 2.585ZM48.6648 11.15C48.0248 11.15 47.4548 10.99 46.9548 10.67C46.4548 10.35 46.0598 9.945 45.7698 9.455V14.195H44.4498V3.17H45.6198V4.64C45.9298 4.16 46.3348 3.775 46.8348 3.485C47.3348 3.185 47.8798 3.035 48.4698 3.035C49.0098 3.035 49.5048 3.145 49.9548 3.365C50.4048 3.585 50.7948 3.885 51.1248 4.265C51.4548 4.645 51.7098 5.08 51.8898 5.57C52.0798 6.05 52.1748 6.555 52.1748 7.085C52.1748 7.825 52.0248 8.505 51.7248 9.125C51.4348 9.745 51.0248 10.24 50.4948 10.61C49.9648 10.97 49.3548 11.15 48.6648 11.15ZM48.2598 10.01C48.6498 10.01 48.9998 9.93 49.3098 9.77C49.6298 9.6 49.8998 9.38 50.1198 9.11C50.3498 8.83 50.5248 8.515 50.6448 8.165C50.7648 7.815 50.8248 7.455 50.8248 7.085C50.8248 6.695 50.7548 6.325 50.6148 5.975C50.4848 5.625 50.2948 5.315 50.0448 5.045C49.8048 4.775 49.5198 4.565 49.1898 4.415C48.8698 4.255 48.5198 4.175 48.1398 4.175C47.8998 4.175 47.6498 4.22 47.3898 4.31C47.1398 4.4 46.8998 4.53 46.6698 4.7C46.4398 4.86 46.2448 5.045 46.0848 5.255C45.9248 5.465 45.8198 5.69 45.7698 5.93V8.165C45.9198 8.505 46.1198 8.815 46.3698 9.095C46.6198 9.375 46.9098 9.6 47.2398 9.77C47.5698 9.93 47.9098 10.01 48.2598 10.01ZM57.2605 11.15C56.6705 11.15 56.1305 11.045 55.6405 10.835C55.1605 10.615 54.7405 10.32 54.3805 9.95C54.0305 9.57 53.7555 9.135 53.5555 8.645C53.3655 8.155 53.2705 7.635 53.2705 7.085C53.2705 6.345 53.4405 5.67 53.7805 5.06C54.1205 4.45 54.5905 3.96 55.1905 3.59C55.8005 3.22 56.4955 3.035 57.2755 3.035C58.0655 3.035 58.7505 3.225 59.3305 3.605C59.9205 3.975 60.3755 4.465 60.6955 5.075C61.0255 5.675 61.1905 6.325 61.1905 7.025C61.1905 7.125 61.1855 7.225 61.1755 7.325C61.1755 7.415 61.1705 7.485 61.1605 7.535H54.6655C54.7055 8.045 54.8455 8.5 55.0855 8.9C55.3355 9.29 55.6555 9.6 56.0455 9.83C56.4355 10.05 56.8555 10.16 57.3055 10.16C57.7855 10.16 58.2355 10.04 58.6555 9.8C59.0855 9.56 59.3805 9.245 59.5405 8.855L60.6805 9.17C60.5105 9.55 60.2555 9.89 59.9155 10.19C59.5855 10.49 59.1905 10.725 58.7305 10.895C58.2805 11.065 57.7905 11.15 57.2605 11.15ZM54.6205 6.62H59.9605C59.9205 6.11 59.7755 5.66 59.5255 5.27C59.2755 4.88 58.9555 4.575 58.5655 4.355C58.1755 4.135 57.7455 4.025 57.2755 4.025C56.8155 4.025 56.3905 4.135 56.0005 4.355C55.6105 4.575 55.2905 4.88 55.0405 5.27C54.8005 5.66 54.6605 6.11 54.6205 6.62ZM66.1228 11.15C65.5328 11.15 64.9928 11.045 64.5028 10.835C64.0228 10.615 63.6028 10.315 63.2428 9.935C62.8928 9.555 62.6178 9.12 62.4178 8.63C62.2278 8.14 62.1328 7.62 62.1328 7.07C62.1328 6.33 62.2978 5.655 62.6278 5.045C62.9578 4.435 63.4228 3.95 64.0228 3.59C64.6228 3.22 65.3178 3.035 66.1078 3.035C66.8778 3.035 67.5478 3.21 68.1178 3.56C68.6978 3.9 69.1278 4.36 69.4078 4.94L68.1178 5.345C67.9178 4.975 67.6378 4.69 67.2778 4.49C66.9178 4.28 66.5178 4.175 66.0778 4.175C65.5978 4.175 65.1578 4.3 64.7578 4.55C64.3678 4.8 64.0578 5.145 63.8278 5.585C63.5978 6.015 63.4828 6.51 63.4828 7.07C63.4828 7.62 63.5978 8.12 63.8278 8.57C64.0678 9.01 64.3828 9.36 64.7728 9.62C65.1728 9.88 65.6128 10.01 66.0928 10.01C66.4028 10.01 66.6978 9.955 66.9778 9.845C67.2678 9.735 67.5178 9.59 67.7278 9.41C67.9478 9.22 68.0978 9.015 68.1778 8.795L69.4678 9.185C69.3078 9.565 69.0628 9.905 68.7328 10.205C68.4128 10.495 68.0278 10.725 67.5778 10.895C67.1378 11.065 66.6528 11.15 66.1228 11.15ZM73.6484 11.15C72.9984 11.15 72.3884 11.045 71.8184 10.835C71.2484 10.615 70.7584 10.29 70.3484 9.86L70.8584 8.93C71.3084 9.35 71.7584 9.65 72.2084 9.83C72.6584 10.01 73.1184 10.1 73.5884 10.1C74.1284 10.1 74.5684 10 74.9084 9.8C75.2484 9.59 75.4184 9.285 75.4184 8.885C75.4184 8.595 75.3284 8.38 75.1484 8.24C74.9784 8.1 74.7334 7.985 74.4134 7.895C74.0934 7.795 73.7134 7.685 73.2734 7.565C72.7334 7.405 72.2784 7.235 71.9084 7.055C71.5384 6.875 71.2584 6.65 71.0684 6.38C70.8784 6.11 70.7834 5.77 70.7834 5.36C70.7834 4.86 70.9134 4.44 71.1734 4.1C71.4334 3.75 71.7884 3.485 72.2384 3.305C72.6984 3.125 73.2184 3.035 73.7984 3.035C74.3784 3.035 74.9034 3.125 75.3734 3.305C75.8434 3.485 76.2484 3.75 76.5884 4.1L75.9884 5.015C75.6784 4.695 75.3384 4.46 74.9684 4.31C74.5984 4.15 74.1834 4.07 73.7234 4.07C73.4534 4.07 73.1884 4.105 72.9284 4.175C72.6684 4.235 72.4534 4.35 72.2834 4.52C72.1134 4.68 72.0284 4.91 72.0284 5.21C72.0284 5.46 72.0934 5.66 72.2234 5.81C72.3634 5.95 72.5634 6.07 72.8234 6.17C73.0934 6.27 73.4184 6.38 73.7984 6.5C74.3884 6.67 74.8984 6.84 75.3284 7.01C75.7684 7.18 76.1084 7.4 76.3484 7.67C76.5884 7.94 76.7084 8.315 76.7084 8.795C76.7084 9.535 76.4284 10.115 75.8684 10.535C75.3084 10.945 74.5684 11.15 73.6484 11.15Z" fill="black"/>
</svg>
