<svg width="32" height="32" viewBox="0 0 32 32" fill="none" xmlns="http://www.w3.org/2000/svg">
<mask id="path-1-inside-1_306_15473" fill="white">
<path d="M24.999 5.27538C27.2026 7.12439 28.7831 9.6073 29.5256 12.3864C30.2681 15.1654 30.1365 18.1058 29.1487 20.8074C28.161 23.509 26.365 25.8408 24.005 27.4856C21.6451 29.1304 18.8358 30.0083 15.9593 29.9999C13.0827 29.9916 10.2786 29.0973 7.92829 27.4389C5.57798 25.7804 3.79558 23.4382 2.82354 20.7308C1.8515 18.0235 1.73702 15.0825 2.49565 12.3078C3.25429 9.53305 4.84922 7.05938 7.0635 5.22322L8.33874 6.76107C6.44044 8.33521 5.0731 10.4559 4.42272 12.8346C3.77235 15.2134 3.87049 17.7348 4.70382 20.0558C5.53715 22.3768 7.0652 24.3847 9.08013 25.8065C11.0951 27.2283 13.499 27.995 15.9651 28.0021C18.4311 28.0093 20.8396 27.2567 22.8627 25.8466C24.8859 24.4366 26.4256 22.4375 27.2724 20.1214C28.1192 17.8053 28.232 15.2845 27.5955 12.902C26.959 10.5195 25.604 8.39094 23.7149 6.80578L24.999 5.27538Z"/>
</mask>
<path d="M24.999 5.27538C27.2026 7.12439 28.7831 9.6073 29.5256 12.3864C30.2681 15.1654 30.1365 18.1058 29.1487 20.8074C28.161 23.509 26.365 25.8408 24.005 27.4856C21.6451 29.1304 18.8358 30.0083 15.9593 29.9999C13.0827 29.9916 10.2786 29.0973 7.92829 27.4389C5.57798 25.7804 3.79558 23.4382 2.82354 20.7308C1.8515 18.0235 1.73702 15.0825 2.49565 12.3078C3.25429 9.53305 4.84922 7.05938 7.0635 5.22322L8.33874 6.76107C6.44044 8.33521 5.0731 10.4559 4.42272 12.8346C3.77235 15.2134 3.87049 17.7348 4.70382 20.0558C5.53715 22.3768 7.0652 24.3847 9.08013 25.8065C11.0951 27.2283 13.499 27.995 15.9651 28.0021C18.4311 28.0093 20.8396 27.2567 22.8627 25.8466C24.8859 24.4366 26.4256 22.4375 27.2724 20.1214C28.1192 17.8053 28.232 15.2845 27.5955 12.902C26.959 10.5195 25.604 8.39094 23.7149 6.80578L24.999 5.27538Z" stroke="black" stroke-width="4" mask="url(#path-1-inside-1_306_15473)"/>
<mask id="path-2-inside-2_306_15473" fill="white">
<path d="M23.2647 4.03239C21.1215 2.73135 18.6681 2.02977 16.161 2.00093C13.654 1.97208 11.1851 2.61705 9.01251 3.86843L10.0096 5.59963C11.8722 4.52682 13.9887 3.9739 16.1381 3.99862C18.2874 4.02335 20.3906 4.62482 22.228 5.74019L23.2647 4.03239Z"/>
</mask>
<path d="M23.2647 4.03239C21.1215 2.73135 18.6681 2.02977 16.161 2.00093C13.654 1.97208 11.1851 2.61705 9.01251 3.86843L10.0096 5.59963C11.8722 4.52682 13.9887 3.9739 16.1381 3.99862C18.2874 4.02335 20.3906 4.62482 22.228 5.74019L23.2647 4.03239Z" stroke="black" stroke-width="4" mask="url(#path-2-inside-2_306_15473)"/>
</svg>
