<svg width="32" height="32" viewBox="0 0 32 32" fill="none" xmlns="http://www.w3.org/2000/svg">
<path d="M5.845 6H3.155C2.89525 6 2.64569 6.10107 2.45914 6.28183L1.67066 7.04582C1.29307 7.41168 1.26328 8.00745 1.60248 8.40915L3.84072 11.0598C4.25011 11.5446 5.00171 11.5305 5.39255 11.0306L7.44614 8.40404C7.76108 8.00123 7.72143 7.42573 7.35422 7.06993L6.54086 6.28183C6.35431 6.10107 6.10475 6 5.845 6Z" stroke="#A16126" stroke-width="2"/>
<circle cx="23" cy="23" r="4" stroke="#A16126" stroke-width="2"/>
<circle cx="9" cy="23" r="4" stroke="#A16126" stroke-width="2"/>
<path d="M26.6113 13.1633L21.7987 5.46968C21.616 5.17748 21.2956 5 20.9509 5H16.3393M26.6113 13.1633H30C30.5523 13.1633 31 13.611 31 14.1633V22C31 22.5523 30.5523 23 30 23H26.6113M26.6113 13.1633H17.3393C16.7871 13.1633 16.3393 12.7156 16.3393 12.1633L16.3393 5M5 23H2C1.44772 23 1 22.5523 1 22V15.1429C1 14.5906 1.44772 14.1429 2 14.1429H8.97561C9.5279 14.1429 9.97561 13.6951 9.97561 13.1429L9.97561 9.57143L9.97561 6C9.97561 5.44772 10.4233 5 10.9756 5H16.3393M12.5 23H19" stroke="#A16126" stroke-width="2"/>
</svg>
