<svg width="61" height="15" viewBox="0 0 61 15" fill="none" xmlns="http://www.w3.org/2000/svg">
<path d="M7.53 2.585C7.41 2.445 7.25 2.31 7.05 2.18C6.85 2.05 6.625 1.935 6.375 1.835C6.125 1.725 5.85 1.64 5.55 1.58C5.26 1.51 4.955 1.475 4.635 1.475C3.815 1.475 3.21 1.63 2.82 1.94C2.43 2.25 2.235 2.675 2.235 3.215C2.235 3.595 2.335 3.895 2.535 4.115C2.735 4.335 3.04 4.515 3.45 4.655C3.87 4.795 4.4 4.94 5.04 5.09C5.78 5.25 6.42 5.445 6.96 5.675C7.5 5.905 7.915 6.215 8.205 6.605C8.495 6.985 8.64 7.495 8.64 8.135C8.64 8.645 8.54 9.09 8.34 9.47C8.15 9.84 7.88 10.15 7.53 10.4C7.18 10.64 6.77 10.82 6.3 10.94C5.83 11.05 5.32 11.105 4.77 11.105C4.23 11.105 3.7 11.05 3.18 10.94C2.67 10.82 2.185 10.65 1.725 10.43C1.265 10.21 0.835 9.935 0.435 9.605L1.08 8.465C1.24 8.635 1.445 8.805 1.695 8.975C1.955 9.135 2.245 9.285 2.565 9.425C2.895 9.565 3.25 9.68 3.63 9.77C4.01 9.85 4.4 9.89 4.8 9.89C5.56 9.89 6.15 9.755 6.57 9.485C6.99 9.205 7.2 8.8 7.2 8.27C7.2 7.87 7.08 7.55 6.84 7.31C6.61 7.07 6.265 6.87 5.805 6.71C5.345 6.55 4.785 6.39 4.125 6.23C3.405 6.05 2.8 5.855 2.31 5.645C1.82 5.425 1.45 5.14 1.2 4.79C0.96 4.44 0.84 3.985 0.84 3.425C0.84 2.745 1.005 2.17 1.335 1.7C1.665 1.23 2.12 0.874999 2.7 0.634999C3.28 0.394999 3.935 0.274999 4.665 0.274999C5.145 0.274999 5.59 0.324999 6 0.424999C6.42 0.524999 6.81 0.664999 7.17 0.844999C7.53 1.025 7.86 1.24 8.16 1.49L7.53 2.585ZM17.0006 11H15.6806V6.62C15.6806 5.82 15.5356 5.22 15.2456 4.82C14.9656 4.42 14.5606 4.22 14.0306 4.22C13.6906 4.22 13.3456 4.31 12.9956 4.49C12.6556 4.67 12.3556 4.915 12.0956 5.225C11.8356 5.525 11.6456 5.875 11.5256 6.275V11H10.2056V0.0499997H11.5256V4.85C11.8356 4.29 12.2556 3.85 12.7856 3.53C13.3256 3.2 13.9056 3.035 14.5256 3.035C14.9956 3.035 15.3856 3.12 15.6956 3.29C16.0156 3.45 16.2706 3.68 16.4606 3.98C16.6506 4.28 16.7856 4.63 16.8656 5.03C16.9556 5.42 17.0006 5.85 17.0006 6.32V11ZM19.0533 11V3.17H20.3733V11H19.0533ZM19.0533 1.7V0.0499997H20.3733V1.7H19.0533ZM26.7253 11.15C26.0853 11.15 25.5153 10.99 25.0153 10.67C24.5153 10.35 24.1203 9.945 23.8303 9.455V14.195H22.5103V3.17H23.6803V4.64C23.9903 4.16 24.3953 3.775 24.8953 3.485C25.3953 3.185 25.9403 3.035 26.5303 3.035C27.0703 3.035 27.5653 3.145 28.0153 3.365C28.4653 3.585 28.8553 3.885 29.1853 4.265C29.5153 4.645 29.7703 5.08 29.9503 5.57C30.1403 6.05 30.2353 6.555 30.2353 7.085C30.2353 7.825 30.0853 8.505 29.7853 9.125C29.4953 9.745 29.0853 10.24 28.5553 10.61C28.0253 10.97 27.4153 11.15 26.7253 11.15ZM26.3203 10.01C26.7103 10.01 27.0603 9.93 27.3703 9.77C27.6903 9.6 27.9603 9.38 28.1803 9.11C28.4103 8.83 28.5853 8.515 28.7053 8.165C28.8253 7.815 28.8853 7.455 28.8853 7.085C28.8853 6.695 28.8153 6.325 28.6753 5.975C28.5453 5.625 28.3553 5.315 28.1053 5.045C27.8653 4.775 27.5803 4.565 27.2503 4.415C26.9303 4.255 26.5803 4.175 26.2003 4.175C25.9603 4.175 25.7103 4.22 25.4503 4.31C25.2003 4.4 24.9603 4.53 24.7303 4.7C24.5003 4.86 24.3053 5.045 24.1453 5.255C23.9853 5.465 23.8803 5.69 23.8303 5.93V8.165C23.9803 8.505 24.1803 8.815 24.4303 9.095C24.6803 9.375 24.9703 9.6 25.3003 9.77C25.6303 9.93 25.9703 10.01 26.3203 10.01ZM36.071 11.15C35.431 11.15 34.861 10.99 34.361 10.67C33.861 10.35 33.466 9.945 33.176 9.455V14.195H31.856V3.17H33.026V4.64C33.336 4.16 33.741 3.775 34.241 3.485C34.741 3.185 35.286 3.035 35.876 3.035C36.416 3.035 36.911 3.145 37.361 3.365C37.811 3.585 38.201 3.885 38.531 4.265C38.861 4.645 39.116 5.08 39.296 5.57C39.486 6.05 39.581 6.555 39.581 7.085C39.581 7.825 39.431 8.505 39.131 9.125C38.841 9.745 38.431 10.24 37.901 10.61C37.371 10.97 36.761 11.15 36.071 11.15ZM35.666 10.01C36.056 10.01 36.406 9.93 36.716 9.77C37.036 9.6 37.306 9.38 37.526 9.11C37.756 8.83 37.931 8.515 38.051 8.165C38.171 7.815 38.231 7.455 38.231 7.085C38.231 6.695 38.161 6.325 38.021 5.975C37.891 5.625 37.701 5.315 37.451 5.045C37.211 4.775 36.926 4.565 36.596 4.415C36.276 4.255 35.926 4.175 35.546 4.175C35.306 4.175 35.056 4.22 34.796 4.31C34.546 4.4 34.306 4.53 34.076 4.7C33.846 4.86 33.651 5.045 33.491 5.255C33.331 5.465 33.226 5.69 33.176 5.93V8.165C33.326 8.505 33.526 8.815 33.776 9.095C34.026 9.375 34.316 9.6 34.646 9.77C34.976 9.93 35.316 10.01 35.666 10.01ZM41.2017 11V3.17H42.5217V11H41.2017ZM41.2017 1.7V0.0499997H42.5217V1.7H41.2017ZM51.4538 11H50.1338V6.62C50.1338 5.79 50.0038 5.185 49.7438 4.805C49.4938 4.415 49.1088 4.22 48.5888 4.22C48.2288 4.22 47.8688 4.31 47.5088 4.49C47.1588 4.67 46.8438 4.915 46.5638 5.225C46.2938 5.525 46.0988 5.875 45.9788 6.275V11H44.6588V3.17H45.8588V4.85C46.0688 4.48 46.3388 4.16 46.6688 3.89C46.9988 3.62 47.3738 3.41 47.7938 3.26C48.2138 3.11 48.6538 3.035 49.1138 3.035C49.5638 3.035 49.9388 3.12 50.2388 3.29C50.5488 3.45 50.7888 3.68 50.9588 3.98C51.1388 4.27 51.2638 4.615 51.3338 5.015C51.4138 5.415 51.4538 5.85 51.4538 6.32V11ZM56.6264 11.09C56.0964 11.09 55.6064 10.985 55.1564 10.775C54.7164 10.555 54.3364 10.26 54.0164 9.89C53.6964 9.51 53.4464 9.08 53.2664 8.6C53.0964 8.12 53.0114 7.62 53.0114 7.1C53.0114 6.55 53.0964 6.03 53.2664 5.54C53.4464 5.05 53.6964 4.62 54.0164 4.25C54.3464 3.87 54.7314 3.575 55.1714 3.365C55.6114 3.145 56.1014 3.035 56.6414 3.035C57.2914 3.035 57.8564 3.195 58.3364 3.515C58.8264 3.835 59.2364 4.24 59.5664 4.73V3.17H60.7364V10.91C60.7364 11.65 60.5564 12.275 60.1964 12.785C59.8464 13.295 59.3664 13.68 58.7564 13.94C58.1564 14.21 57.4864 14.345 56.7464 14.345C55.8664 14.345 55.1464 14.19 54.5864 13.88C54.0264 13.57 53.5614 13.15 53.1914 12.62L53.9564 11.945C54.2664 12.405 54.6664 12.75 55.1564 12.98C55.6564 13.21 56.1864 13.325 56.7464 13.325C57.2264 13.325 57.6664 13.235 58.0664 13.055C58.4764 12.885 58.8014 12.62 59.0414 12.26C59.2914 11.9 59.4164 11.45 59.4164 10.91V9.53C59.1264 10.01 58.7264 10.39 58.2164 10.67C57.7164 10.95 57.1864 11.09 56.6264 11.09ZM57.0314 10.01C57.3114 10.01 57.5814 9.96 57.8414 9.86C58.1014 9.76 58.3414 9.63 58.5614 9.47C58.7814 9.3 58.9664 9.11 59.1164 8.9C59.2664 8.69 59.3664 8.475 59.4164 8.255V6.005C59.2764 5.645 59.0764 5.33 58.8164 5.06C58.5564 4.78 58.2614 4.565 57.9314 4.415C57.6014 4.255 57.2614 4.175 56.9114 4.175C56.5114 4.175 56.1514 4.26 55.8314 4.43C55.5214 4.6 55.2564 4.83 55.0364 5.12C54.8164 5.4 54.6464 5.715 54.5264 6.065C54.4064 6.415 54.3464 6.77 54.3464 7.13C54.3464 7.52 54.4164 7.89 54.5564 8.24C54.6964 8.58 54.8864 8.885 55.1264 9.155C55.3664 9.425 55.6514 9.635 55.9814 9.785C56.3114 9.935 56.6614 10.01 57.0314 10.01Z" fill="black"/>
</svg>
