<svg width="32" height="32" viewBox="0 0 32 32" fill="none" xmlns="http://www.w3.org/2000/svg">
<path d="M5.73344 11.8517C5.80687 11.3621 6.22738 11 6.72237 11H25.2776C25.7726 11 26.1931 11.3621 26.2666 11.8517L27.2555 11.7033L26.2666 11.8517L28.6666 27.8517C28.7573 28.4563 28.289 29 27.6776 29H4.32237C3.71101 29 3.24275 28.4563 3.33344 27.8517L5.73344 11.8517Z" stroke="#A16126" stroke-width="2"/>
<path d="M11.2334 3.85166C11.3069 3.36214 11.7274 3 12.2224 3H19.7776C20.2726 3 20.6931 3.36214 20.7666 3.85166L21.6666 9.85166C21.7573 10.4563 21.289 11 20.6776 11H11.3224C10.711 11 10.2427 10.4563 10.3334 9.85166L11.2334 3.85166Z" stroke="#A16126" stroke-width="2"/>
</svg>
