<svg width="32" height="32" viewBox="0 0 32 32" fill="none" xmlns="http://www.w3.org/2000/svg">
<path d="M24.3063 5.98283L23.6126 5.26258L24.3063 5.98283C24.9415 5.37106 26 5.8212 26 6.70309V22.0752C26 22.4215 25.8208 22.7431 25.5264 22.9254L16.5264 28.4979C16.2039 28.6976 15.7961 28.6976 15.4736 28.4979L6.47357 22.9254C6.17915 22.7431 6 22.4215 6 22.0752V6.70308C6 5.8212 7.05853 5.37106 7.69371 5.98283L8.41887 6.68127C9.58067 7.80025 11.4193 7.80025 12.5811 6.68127L15.3063 4.05654C15.6936 3.68355 16.3064 3.68355 16.6937 4.05654L19.4189 6.68127C20.5807 7.80025 22.4193 7.80025 23.5811 6.68127L24.3063 5.98283Z" stroke="#8B8B8B" stroke-width="2"/>
<path d="M11 17L14.0122 21.3311C14.4279 21.9288 15.3225 21.8962 15.6935 21.2699L21.7782 10.9998" stroke="#8B8B8B" stroke-width="2"/>
</svg>
