<svg width="32" height="32" viewBox="0 0 32 32" fill="none" xmlns="http://www.w3.org/2000/svg">
<path d="M16.8085 29.6907L27.7514 18.9934C30.4401 16.365 30.8368 12.0408 28.2923 9.27852C27.655 8.58462 26.8797 8.02493 26.0137 7.63361C25.1478 7.2423 24.2094 7.02755 23.2557 7.00248C22.3021 6.97741 21.3532 7.14254 20.467 7.4878C19.5808 7.83306 18.7759 8.35121 18.1013 9.01062L16.0445 11.0212L14.2687 9.28527C11.58 6.65684 7.15652 6.26905 4.33083 8.75644C3.621 9.37949 3.04846 10.1374 2.64816 10.9839C2.24786 11.8304 2.02818 12.7477 2.00254 13.68C1.97689 14.6122 2.14582 15.5398 2.499 16.4061C2.85219 17.2724 3.38223 18.0593 4.05678 18.7187L15.2806 29.6907C15.4832 29.8887 15.758 30 16.0445 30C16.3311 30 16.6059 29.8887 16.8085 29.6907V29.6907Z" stroke="black" stroke-width="2" stroke-linecap="round" stroke-linejoin="round"/>
<line x1="16" y1="2" x2="16" y2="10" stroke="black" stroke-width="2"/>
</svg>
